<svg xmlns="http://www.w3.org/2000/svg" width="312" height="278" fill="none"><g filter="url(#A)"><path d="M292 113.79l-36.114 42.456-34.986 48.75s-10.376 13.85-23.443 35.807 39.97-20.944 58.43 0S272.4 230.33 272.4 230.33L292 240.8V113.79z" fill="#766d62"/><path transform="matrix(1 0 0 -1 21.5455 24.3158)" fill="#46423c" d="M0 0h206.318v14.316H0z"/><path d="M292 10H183.818s24.288 46.4 42.386 65.57S292 117.368 292 117.368V10z" fill="#766d62"/><path d="M20 10.895h108.182s-24.288 46.4-42.386 65.57S20 118.263 20 118.263V10.895z" fill="#766d62"/><path d="M20.773 113.79l36.114 42.456 34.985 48.75s10.376 13.85 23.444 35.807-39.97-20.944-58.43 0-16.514-10.472-16.514-10.472l-19.6 10.472V113.79z" fill="#766d62"/></g><defs><filter id="A" x="0" y="0" width="312" height="278" filterUnits="userSpaceOnUse" color-interpolation-filters="sRGB"><feFlood flood-opacity="0" result="A"/><feColorMatrix in="SourceAlpha" values="0 0 0 0 0 0 0 0 0 0 0 0 0 0 0 0 0 0 127 0"/><feOffset dy="10"/><feGaussianBlur stdDeviation="10"/><feColorMatrix values="0 0 0 0 0 0 0 0 0 0 0 0 0 0 0 0 0 0 0.25 0"/><feBlend in2="A"/><feBlend in="SourceGraphic"/></filter></defs></svg>